<?xml version="1.0" encoding="UTF-8"?>
<svg width="24" height="24" viewBox="0 0 128 128" xmlns="http://www.w3.org/2000/svg">
  <defs>
    <linearGradient id="wand_body" x1="0%" y1="0%" x2="100%" y2="100%">
      <stop offset="0%"   stop-color="#F5D27A"/>
      <stop offset="40%"  stop-color="#D4922A"/>
      <stop offset="100%" stop-color="#8B5A0A"/>
    </linearGradient>
    <linearGradient id="wand_grip" x1="0%" y1="0%" x2="100%" y2="100%">
      <stop offset="0%"  stop-color="#7B4F1A"/>
      <stop offset="100%" stop-color="#3E2408"/>
    </linearGradient>
    <radialGradient id="star_core" cx="50%" cy="50%" r="50%">
      <stop offset="0%"   stop-color="#FFFFFF"/>
      <stop offset="25%"  stop-color="#FFF9C4"/>
      <stop offset="70%"  stop-color="#FFD700"/>
      <stop offset="100%" stop-color="#FFA000" stop-opacity="0"/>
    </radialGradient>
    <radialGradient id="glow_outer" cx="50%" cy="50%" r="50%">
      <stop offset="0%"   stop-color="#FFE082" stop-opacity="0.6"/>
      <stop offset="100%" stop-color="#FFD700"  stop-opacity="0"/>
    </radialGradient>
  </defs>
  <line x1="18" y1="112" x2="80" y2="50" stroke="url(#wand_body)" stroke-width="8" stroke-linecap="round"/>
  <line x1="18" y1="112" x2="30" y2="98" stroke="url(#wand_grip)" stroke-width="10" stroke-linecap="round"/>
  <line x1="30" y1="99"  x2="35" y2="93" stroke="#F5D27A" stroke-width="3" stroke-linecap="round"/>
  <circle cx="88" cy="40" r="22" fill="url(#glow_outer)"/>
  <line x1="88" y1="12" x2="88" y2="30"  stroke="#FFE566" stroke-width="4.5" stroke-linecap="round"/>
  <line x1="88" y1="50" x2="88" y2="68"  stroke="#FFE566" stroke-width="4.5" stroke-linecap="round"/>
  <line x1="60" y1="40" x2="78" y2="40"  stroke="#FFE566" stroke-width="4.5" stroke-linecap="round"/>
  <line x1="98" y1="40" x2="116" y2="40" stroke="#FFE566" stroke-width="4.5" stroke-linecap="round"/>
  <line x1="68" y1="20" x2="79" y2="31"  stroke="#FFD030" stroke-width="3" stroke-linecap="round"/>
  <line x1="97" y1="49" x2="108" y2="60" stroke="#FFD030" stroke-width="3" stroke-linecap="round"/>
  <line x1="108" y1="20" x2="97" y2="31" stroke="#FFD030" stroke-width="3" stroke-linecap="round"/>
  <line x1="79"  y1="49" x2="68" y2="60" stroke="#FFD030" stroke-width="3" stroke-linecap="round"/>
  <circle cx="88" cy="40" r="11" fill="url(#star_core)"/>
  <circle cx="88" cy="40" r="5"  fill="#FFFFFF" opacity="0.95"/>
  <circle cx="42" cy="76" r="3"   fill="#FFD700" opacity="0.7"/>
  <circle cx="54" cy="90" r="2.2" fill="#FFE566" opacity="0.55"/>
  <circle cx="34" cy="90" r="1.8" fill="#FFD700" opacity="0.45"/>
</svg>
